<?xml version="1.0" encoding="UTF-8"?>
<svg xmlns="http://www.w3.org/2000/svg" viewBox="0 0 488 78" shape-rendering="crispEdges">
  <defs>
    <linearGradient id="g" x1="18" y1="0" x2="470" y2="0" gradientUnits="userSpaceOnUse" color-interpolation="linearRGB">
      <stop offset="0%" stop-color="#0c16b5"/>
      <stop offset="6%" stop-color="#0037bf"/>
      <stop offset="20%" stop-color="#004ec7"/>
      <stop offset="39%" stop-color="#0063d0"/>
      <stop offset="61%" stop-color="#0076d8"/>
      <stop offset="80%" stop-color="#0089df"/>
      <stop offset="94%" stop-color="#229be6"/>
      <stop offset="100%" stop-color="#3eaced"/>
    </linearGradient>
    <linearGradient id="gs" x1="18" y1="0" x2="470" y2="0" gradientUnits="userSpaceOnUse" color-interpolation="linearRGB">
      <stop offset="0%" stop-color="#060b57"/>
      <stop offset="6%" stop-color="#02195c"/>
      <stop offset="20%" stop-color="#002460"/>
      <stop offset="39%" stop-color="#002f64"/>
      <stop offset="61%" stop-color="#003868"/>
      <stop offset="80%" stop-color="#06416b"/>
      <stop offset="94%" stop-color="#124a6f"/>
      <stop offset="100%" stop-color="#1e5372"/>
    </linearGradient>
  </defs>
  <g fill="url(#gs)">
    <rect x="29" y="20" width="9" height="20"/>
    <rect x="38" y="20" width="9" height="10"/>
    <rect x="47" y="20" width="9" height="20"/>
    <rect x="65" y="20" width="9" height="20"/>
    <rect x="74" y="20" width="9" height="10"/>
    <rect x="83" y="20" width="9" height="10"/>
    <rect x="101" y="20" width="9" height="20"/>
    <rect x="110" y="20" width="9" height="10"/>
    <rect x="119" y="20" width="9" height="20"/>
    <rect x="137" y="20" width="9" height="20"/>
    <rect x="146" y="20" width="9" height="10"/>
    <rect x="155" y="20" width="9" height="20"/>
    <rect x="191" y="20" width="9" height="20"/>
    <rect x="200" y="20" width="9" height="10"/>
    <rect x="209" y="20" width="9" height="10"/>
    <rect x="227" y="20" width="9" height="20"/>
    <rect x="236" y="20" width="9" height="10"/>
    <rect x="245" y="20" width="9" height="10"/>
    <rect x="263" y="30" width="9" height="10"/>
    <rect x="272" y="20" width="9" height="10"/>
    <rect x="281" y="20" width="9" height="20"/>
    <rect x="299" y="20" width="9" height="20"/>
    <rect x="308" y="20" width="9" height="10"/>
    <rect x="317" y="20" width="9" height="10"/>
    <rect x="335" y="20" width="9" height="20"/>
    <rect x="344" y="20" width="9" height="10"/>
    <rect x="353" y="20" width="9" height="10"/>
    <rect x="371" y="20" width="9" height="20"/>
    <rect x="380" y="20" width="9" height="10"/>
    <rect x="389" y="20" width="9" height="20"/>
    <rect x="407" y="20" width="9" height="20"/>
    <rect x="443" y="20" width="9" height="20"/>
    <rect x="452" y="20" width="9" height="10"/>
    <rect x="461" y="30" width="9" height="10"/>
    <rect x="29" y="40" width="9" height="20"/>
    <rect x="38" y="40" width="9" height="10"/>
    <rect x="47" y="50" width="9" height="10"/>
    <rect x="65" y="40" width="9" height="20"/>
    <rect x="74" y="40" width="9" height="20"/>
    <rect x="83" y="50" width="9" height="10"/>
    <rect x="101" y="40" width="9" height="20"/>
    <rect x="110" y="40" width="9" height="10"/>
    <rect x="119" y="40" width="9" height="10"/>
    <rect x="137" y="40" width="9" height="20"/>
    <rect x="146" y="50" width="9" height="10"/>
    <rect x="155" y="40" width="9" height="20"/>
    <rect x="191" y="50" width="9" height="10"/>
    <rect x="200" y="50" width="9" height="10"/>
    <rect x="209" y="40" width="9" height="20"/>
    <rect x="227" y="40" width="9" height="20"/>
    <rect x="236" y="50" width="9" height="10"/>
    <rect x="245" y="50" width="9" height="10"/>
    <rect x="263" y="40" width="9" height="20"/>
    <rect x="272" y="40" width="9" height="10"/>
    <rect x="281" y="40" width="9" height="20"/>
    <rect x="299" y="40" width="9" height="20"/>
    <rect x="308" y="40" width="9" height="10"/>
    <rect x="335" y="40" width="9" height="20"/>
    <rect x="344" y="40" width="9" height="10"/>
    <rect x="371" y="40" width="9" height="20"/>
    <rect x="380" y="50" width="9" height="10"/>
    <rect x="389" y="40" width="9" height="20"/>
    <rect x="407" y="40" width="9" height="20"/>
    <rect x="416" y="50" width="9" height="10"/>
    <rect x="425" y="50" width="9" height="10"/>
    <rect x="443" y="40" width="9" height="20"/>
    <rect x="452" y="50" width="9" height="10"/>
    <rect x="461" y="40" width="9" height="10"/>
  </g>
  <g fill="url(#g)">
    <rect x="27" y="18" width="9" height="20"/>
    <rect x="36" y="18" width="9" height="10"/>
    <rect x="45" y="18" width="9" height="20"/>
    <rect x="63" y="18" width="9" height="20"/>
    <rect x="72" y="18" width="9" height="10"/>
    <rect x="81" y="18" width="9" height="10"/>
    <rect x="99" y="18" width="9" height="20"/>
    <rect x="108" y="18" width="9" height="10"/>
    <rect x="117" y="18" width="9" height="20"/>
    <rect x="135" y="18" width="9" height="20"/>
    <rect x="144" y="18" width="9" height="10"/>
    <rect x="153" y="18" width="9" height="20"/>
    <rect x="189" y="18" width="9" height="20"/>
    <rect x="198" y="18" width="9" height="10"/>
    <rect x="207" y="18" width="9" height="10"/>
    <rect x="225" y="18" width="9" height="20"/>
    <rect x="234" y="18" width="9" height="10"/>
    <rect x="243" y="18" width="9" height="10"/>
    <rect x="261" y="28" width="9" height="10"/>
    <rect x="270" y="18" width="9" height="10"/>
    <rect x="279" y="18" width="9" height="20"/>
    <rect x="297" y="18" width="9" height="20"/>
    <rect x="306" y="18" width="9" height="10"/>
    <rect x="315" y="18" width="9" height="10"/>
    <rect x="333" y="18" width="9" height="20"/>
    <rect x="342" y="18" width="9" height="10"/>
    <rect x="351" y="18" width="9" height="10"/>
    <rect x="369" y="18" width="9" height="20"/>
    <rect x="378" y="18" width="9" height="10"/>
    <rect x="387" y="18" width="9" height="20"/>
    <rect x="405" y="18" width="9" height="20"/>
    <rect x="441" y="18" width="9" height="20"/>
    <rect x="450" y="18" width="9" height="10"/>
    <rect x="459" y="28" width="9" height="10"/>
    <rect x="27" y="38" width="9" height="20"/>
    <rect x="36" y="38" width="9" height="10"/>
    <rect x="45" y="48" width="9" height="10"/>
    <rect x="63" y="38" width="9" height="20"/>
    <rect x="72" y="38" width="9" height="20"/>
    <rect x="81" y="48" width="9" height="10"/>
    <rect x="99" y="38" width="9" height="20"/>
    <rect x="108" y="38" width="9" height="10"/>
    <rect x="117" y="38" width="9" height="10"/>
    <rect x="135" y="38" width="9" height="20"/>
    <rect x="144" y="48" width="9" height="10"/>
    <rect x="153" y="38" width="9" height="20"/>
    <rect x="189" y="48" width="9" height="10"/>
    <rect x="198" y="48" width="9" height="10"/>
    <rect x="207" y="38" width="9" height="20"/>
    <rect x="225" y="38" width="9" height="20"/>
    <rect x="234" y="48" width="9" height="10"/>
    <rect x="243" y="48" width="9" height="10"/>
    <rect x="261" y="38" width="9" height="20"/>
    <rect x="270" y="38" width="9" height="10"/>
    <rect x="279" y="38" width="9" height="20"/>
    <rect x="297" y="38" width="9" height="20"/>
    <rect x="306" y="38" width="9" height="10"/>
    <rect x="333" y="38" width="9" height="20"/>
    <rect x="342" y="38" width="9" height="10"/>
    <rect x="369" y="38" width="9" height="20"/>
    <rect x="378" y="48" width="9" height="10"/>
    <rect x="387" y="38" width="9" height="20"/>
    <rect x="405" y="38" width="9" height="20"/>
    <rect x="414" y="48" width="9" height="10"/>
    <rect x="423" y="48" width="9" height="10"/>
    <rect x="441" y="38" width="9" height="20"/>
    <rect x="450" y="48" width="9" height="10"/>
    <rect x="459" y="38" width="9" height="10"/>
  </g>
</svg>
